<mxfile host="app.diagrams.net" modified="2023-11-23T12:35:04.057Z" agent="Mozilla/5.0 (Windows NT 10.0; Win64; x64) AppleWebKit/537.36 (KHTML, like Gecko) Chrome/119.0.0.0 Safari/537.36" etag="eUAiLnwB7wfIoDeCwoYP" version="22.1.3" type="device">
  <diagram name="Page-1" id="Uw7iImo4Fe5No2FG-JXk">
    <mxGraphModel dx="1114" dy="626" grid="1" gridSize="10" guides="1" tooltips="1" connect="1" arrows="1" fold="1" page="1" pageScale="1" pageWidth="850" pageHeight="1100" math="0" shadow="0">
      <root>
        <mxCell id="0" />
        <mxCell id="1" parent="0" />
        <mxCell id="wI5DGb8ZRutGpc3RqpcF-1" value="&lt;font style=&quot;font-size: 24px;&quot;&gt;start&lt;/font&gt;" style="ellipse;whiteSpace=wrap;html=1;" vertex="1" parent="1">
          <mxGeometry x="340" y="60" width="130" height="60" as="geometry" />
        </mxCell>
        <mxCell id="wI5DGb8ZRutGpc3RqpcF-2" value="&lt;font style=&quot;font-size: 18px;&quot;&gt;login / Register&lt;/font&gt;" style="rounded=0;whiteSpace=wrap;html=1;" vertex="1" parent="1">
          <mxGeometry x="340" y="190" width="120" height="60" as="geometry" />
        </mxCell>
        <mxCell id="wI5DGb8ZRutGpc3RqpcF-3" value="&lt;font style=&quot;font-size: 14px;&quot;&gt;Reports/ Deposit/ Withdraw&lt;/font&gt;" style="rounded=0;whiteSpace=wrap;html=1;" vertex="1" parent="1">
          <mxGeometry x="340" y="450" width="120" height="60" as="geometry" />
        </mxCell>
        <mxCell id="wI5DGb8ZRutGpc3RqpcF-4" value="&lt;font style=&quot;font-size: 18px;&quot;&gt;logout&lt;/font&gt;" style="rounded=0;whiteSpace=wrap;html=1;" vertex="1" parent="1">
          <mxGeometry x="340" y="560" width="120" height="60" as="geometry" />
        </mxCell>
        <mxCell id="wI5DGb8ZRutGpc3RqpcF-5" value="&lt;font style=&quot;font-size: 14px;&quot;&gt;success&lt;/font&gt;" style="rhombus;whiteSpace=wrap;html=1;" vertex="1" parent="1">
          <mxGeometry x="360" y="310" width="80" height="80" as="geometry" />
        </mxCell>
        <mxCell id="wI5DGb8ZRutGpc3RqpcF-6" value="&lt;font style=&quot;font-size: 24px;&quot;&gt;stop&lt;/font&gt;" style="ellipse;whiteSpace=wrap;html=1;" vertex="1" parent="1">
          <mxGeometry x="340" y="680" width="130" height="60" as="geometry" />
        </mxCell>
        <mxCell id="wI5DGb8ZRutGpc3RqpcF-7" value="" style="endArrow=classic;html=1;rounded=0;exitX=0.446;exitY=1.017;exitDx=0;exitDy=0;exitPerimeter=0;entryX=0.5;entryY=0;entryDx=0;entryDy=0;" edge="1" parent="1" source="wI5DGb8ZRutGpc3RqpcF-1" target="wI5DGb8ZRutGpc3RqpcF-2">
          <mxGeometry width="50" height="50" relative="1" as="geometry">
            <mxPoint x="400" y="440" as="sourcePoint" />
            <mxPoint x="450" y="390" as="targetPoint" />
          </mxGeometry>
        </mxCell>
        <mxCell id="wI5DGb8ZRutGpc3RqpcF-8" value="" style="endArrow=classic;html=1;rounded=0;exitX=0.5;exitY=1;exitDx=0;exitDy=0;entryX=0.5;entryY=0;entryDx=0;entryDy=0;" edge="1" parent="1" source="wI5DGb8ZRutGpc3RqpcF-2" target="wI5DGb8ZRutGpc3RqpcF-5">
          <mxGeometry width="50" height="50" relative="1" as="geometry">
            <mxPoint x="404" y="270" as="sourcePoint" />
            <mxPoint x="406" y="339" as="targetPoint" />
          </mxGeometry>
        </mxCell>
        <mxCell id="wI5DGb8ZRutGpc3RqpcF-9" value="" style="endArrow=classic;html=1;rounded=0;exitX=0.5;exitY=1;exitDx=0;exitDy=0;" edge="1" parent="1" source="wI5DGb8ZRutGpc3RqpcF-5" target="wI5DGb8ZRutGpc3RqpcF-3">
          <mxGeometry width="50" height="50" relative="1" as="geometry">
            <mxPoint x="460" y="390" as="sourcePoint" />
            <mxPoint x="460" y="450" as="targetPoint" />
          </mxGeometry>
        </mxCell>
        <mxCell id="wI5DGb8ZRutGpc3RqpcF-11" value="" style="endArrow=classic;html=1;rounded=0;exitX=0.5;exitY=1;exitDx=0;exitDy=0;" edge="1" parent="1" source="wI5DGb8ZRutGpc3RqpcF-3" target="wI5DGb8ZRutGpc3RqpcF-4">
          <mxGeometry width="50" height="50" relative="1" as="geometry">
            <mxPoint x="480" y="530" as="sourcePoint" />
            <mxPoint x="480" y="590" as="targetPoint" />
          </mxGeometry>
        </mxCell>
        <mxCell id="wI5DGb8ZRutGpc3RqpcF-12" value="" style="endArrow=classic;html=1;rounded=0;exitX=0.5;exitY=1;exitDx=0;exitDy=0;" edge="1" parent="1" source="wI5DGb8ZRutGpc3RqpcF-4" target="wI5DGb8ZRutGpc3RqpcF-6">
          <mxGeometry width="50" height="50" relative="1" as="geometry">
            <mxPoint x="500" y="640" as="sourcePoint" />
            <mxPoint x="500" y="700" as="targetPoint" />
          </mxGeometry>
        </mxCell>
        <mxCell id="wI5DGb8ZRutGpc3RqpcF-20" value="" style="group" vertex="1" connectable="0" parent="1">
          <mxGeometry x="490" y="226" height="124" as="geometry" />
        </mxCell>
        <mxCell id="wI5DGb8ZRutGpc3RqpcF-18" value="" style="endArrow=none;html=1;rounded=0;exitX=1;exitY=0.5;exitDx=0;exitDy=0;" edge="1" parent="wI5DGb8ZRutGpc3RqpcF-20" source="wI5DGb8ZRutGpc3RqpcF-5">
          <mxGeometry width="50" height="50" relative="1" as="geometry">
            <mxPoint x="-20" y="154" as="sourcePoint" />
            <mxPoint y="124" as="targetPoint" />
          </mxGeometry>
        </mxCell>
        <mxCell id="wI5DGb8ZRutGpc3RqpcF-19" value="" style="endArrow=classic;html=1;rounded=0;entryX=0.992;entryY=0.633;entryDx=0;entryDy=0;entryPerimeter=0;" edge="1" parent="wI5DGb8ZRutGpc3RqpcF-20" target="wI5DGb8ZRutGpc3RqpcF-2">
          <mxGeometry width="50" height="50" relative="1" as="geometry">
            <mxPoint y="124" as="sourcePoint" />
            <mxPoint x="190" y="4" as="targetPoint" />
            <Array as="points">
              <mxPoint />
            </Array>
          </mxGeometry>
        </mxCell>
        <mxCell id="wI5DGb8ZRutGpc3RqpcF-27" value="NO" style="rounded=0;whiteSpace=wrap;html=1;" vertex="1" parent="1">
          <mxGeometry x="500" y="270" width="50" height="30" as="geometry" />
        </mxCell>
        <mxCell id="wI5DGb8ZRutGpc3RqpcF-31" value="YES" style="rounded=0;whiteSpace=wrap;html=1;" vertex="1" parent="1">
          <mxGeometry x="420" y="400" width="50" height="30" as="geometry" />
        </mxCell>
      </root>
    </mxGraphModel>
  </diagram>
</mxfile>
